<svg width="1000" height="1000" viewBox="0 0 1000 1000" fill="none" xmlns="http://www.w3.org/2000/svg">
<rect width="1000" height="1000" fill="#DDE1FF"/>
<path d="M634.242 697.289C626.657 707.544 618.998 717.8 610.788 727.86C609.114 729.989 607.327 732.144 605.565 734.291C631.468 775.872 670.203 806.864 728.012 815.807C760.361 820.818 793.961 816.648 824.337 804.465C839.337 798.442 853.313 790.416 866.308 780.783C875.048 774.289 889.024 763.531 897.958 752.409C874.342 760.071 850.901 765.415 828.147 767.111C816.827 768.072 805.675 767.783 795.229 766.69C732.072 759.876 687.346 706.558 667.979 648.945C657.22 665.223 646.093 681.388 634.242 697.289Z" fill="#3248FF"/>
<path d="M666.233 268.239L720.076 292.788C707.999 318.824 695.928 344.665 683.436 370.341C673.003 391.798 662.368 413.109 651.452 434.181C648.654 439.655 645.805 445.085 642.988 450.541C634.92 466.151 626.776 481.692 618.363 497.019C600.47 529.625 581.698 564.317 560.203 597.15C529.185 644.529 492.47 687.977 444.136 715.317C397.382 741.762 336.952 749.063 290.405 722.24C242.002 694.345 218.18 635.703 215.676 579.732C212.702 513.095 235.954 445.64 279.313 395.111C312.559 356.363 359.074 327.02 409.88 323.221C435.057 321.325 461.301 326.018 482.382 339.978C510.319 358.454 526.124 390.714 535.553 422.943C548.283 466.472 551.658 511.999 555.849 557.249C575.945 525.971 593.782 493.277 610.728 462.39C619.593 446.263 628.15 429.904 636.633 413.468C624.951 359.966 602.164 308.701 562.462 271.88C510.665 223.839 434.505 206.547 365.26 219.89C296.014 233.22 233.984 274.916 188.667 329.149C141.38 385.756 110.958 456.62 103.661 530.142C96.0259 606.958 114.584 687.63 161.94 748.439C248.746 859.929 398.355 862.959 509.78 787.679C533.182 771.88 553.804 753.196 572.551 733.465C579.176 726.328 585.77 718.869 591.937 711.449C594.302 708.608 596.617 705.779 598.832 702.969C607.082 692.878 614.768 682.597 622.391 672.31C635.441 654.81 647.599 637.007 659.369 619.072C661.396 615.979 663.435 612.899 665.436 609.806C679.063 588.734 692.182 567.504 704.623 545.985C717.039 524.46 729.098 502.814 740.654 480.98C752.123 459.102 763.235 437.098 774.076 415.03C787.189 388.434 799.893 361.598 812.265 334.818L867.093 359.815L836.062 160L666.233 268.239Z" fill="#3248FF"/>
</svg>
